<svg width="16" height="16" viewBox="0 0 16 16" fill="none" xmlns="http://www.w3.org/2000/svg">
<path d="M11.4989 6.49937C11.4989 5.17341 10.9721 3.90177 10.0346 2.96418C9.09696 2.02659 7.82532 1.49985 6.49937 1.49985C5.17341 1.49985 3.90177 2.02659 2.96418 2.96418C2.02659 3.90177 1.49985 5.17341 1.49985 6.49937C1.49985 7.82532 2.02659 9.09696 2.96418 10.0346C3.90177 10.9721 5.17341 11.4989 6.49937 11.4989C7.82532 11.4989 9.09696 10.9721 10.0346 10.0346C10.9721 9.09696 11.4989 7.82532 11.4989 6.49937ZM10.5333 11.5957C9.4272 12.4738 8.02422 12.9987 6.49937 12.9987C2.90909 12.9987 0 10.0896 0 6.49937C0 2.90909 2.90909 0 6.49937 0C10.0896 0 12.9987 2.90909 12.9987 6.49937C12.9987 8.02422 12.4738 9.4272 11.5957 10.5333L15.7797 14.7173C16.0734 15.011 16.0734 15.486 15.7797 15.7766C15.486 16.0672 15.011 16.0703 14.7204 15.7766L10.5333 11.5957Z" fill="#343434"/>
</svg>
